<?xml version="1.0" encoding="utf-8"?>
<!-- Generator: Adobe Illustrator 23.0.3, SVG Export Plug-In . SVG Version: 6.00 Build 0)  -->
<svg version="1.1" id="Layer_1" xmlns="http://www.w3.org/2000/svg" xmlns:xlink="http://www.w3.org/1999/xlink" x="0px" y="0px"
	 viewBox="0 0 340 70" style="enable-background:new 0 0 340 70;" xml:space="preserve">
<g>
	<defs>
		<path id="SVGID_1_" d="M304.14,50.84l0.01-12.49l12.31,0.01l0-5.72l-12.31-0.01l0.01-13.51l15.25,0.01l0-5.83h-21.68V56.8
			c0,0,13.91,0.03,17.42,0.03c2.63,0,4.83-2.9,4.83-5.96L304.14,50.84z M94.44,46.84h-0.11c0,0-1.82-3.26-2.73-4.69
			c-3.25-5.11-8.36-13.22-13.76-21.78c-2.79-4.42-5.67-7.04-9.42-7.19v43.51h6.24l0.02-30h0.15c0,0,1.4,2.8,2.55,4.64
			c3.38,5.39,8.06,12.88,12.91,20.52c2.7,4.25,6.12,5.12,10.13,5.17V13.51h-6V46.84z M287.84,51.49c1.04,1.75,2.07,3.76,2.81,5.38
			l-6.47,0.02c-0.82-1.54-1.84-3.43-2.81-5.02c-0.96-1.58-1.93-3.09-2.92-4.54c-0.98-1.44-1.95-2.79-2.92-4.05
			c-0.53-0.69-1.03-1.33-1.5-1.92c-1.82,0.32-3.75,0.53-5.91,0.62v14.65l-6.08,0.02v-14.6h-8.85l-2.26-6.05h11.11V14.98
			c2.39-1.05,6.43-1.94,9.03-2.09c4.17-0.23,8.23,0.68,11.39,2.68c3.81,2.42,6.02,6.19,6.22,10.62c0.18,4.02-0.99,7.38-3.47,9.98
			c-1.42,1.48-3.22,2.68-5.43,3.6c0.52,0.66,1.11,1.43,1.79,2.32c1,1.32,2.03,2.78,3.1,4.38C285.74,48.08,286.8,49.75,287.84,51.49z
			 M281.36,31.99c1.32-1.38,1.91-3.19,1.8-5.53c-0.11-2.47-1.26-4.42-3.42-5.78c-2.9-1.84-7.56-2.26-11.61-1.21v16.48
			C274.35,35.64,279.16,34.29,281.36,31.99z M50.23,52.31c0,2.63,3.22,4.83,6.39,4.83l0.03-43.63l-6.42,0.02
			C50.23,13.53,50.23,48.93,50.23,52.31z M20,52.31c0,2.63,3.32,4.83,6.39,4.83l0.02-18.79l12.31,0.01l0-5.72l-12.31-0.01
			l0.01-13.51l15.25,0.01l0-5.61H20.03C20.03,13.53,20,48.8,20,52.31z M234.75,14.9c-0.81,0.88-1.81,2.64-2.38,4.29
			c-1.05,3.04-4.65,13.94-4.68,14.05l-1.53,5.13c2.03-1.77,4.5-3.26,7.47-4.26l2.1-6.96c3.35,8.57,11.77,29.77,11.77,29.77
			l6.67-0.13L237.17,13.2C237.17,13.2,235.99,13.55,234.75,14.9z M201.25,50.84V13.31h-6.59V56.8c0,0,13.48,0.03,17,0.03
			c2.63,0,4.83-2.9,4.83-5.96L201.25,50.84z M143.54,13.51h-6.03v33.32h-0.11c0,0-1.82-3.26-2.73-4.69
			c-3.25-5.11-8.36-13.22-13.76-21.78c-2.79-4.42-5.64-7.04-9.39-7.19l-0.03,43.51h6.24l0.02-30h0.15c0,0,1.4,2.8,2.55,4.64
			c3.38,5.39,8.06,12.88,12.91,20.52c2.7,4.25,6.12,5.12,10.13,5.17L143.54,13.51z M184.24,32.64l-12.31-0.01l0.01-13.51l15.25,0.01
			l0-5.61h-21.64c0,0-0.03,35.27-0.03,38.78c0,2.63,3.32,4.83,6.39,4.83l0.02-18.79l12.31,0.01L184.24,32.64z M220.44,56.97h6.05
			c0-3.21,2.99-12.81,12.59-14.06l-2.25-5.75C224.61,39.58,220.44,51.74,220.44,56.97z"/>
	</defs>
	<use xlink:href="#SVGID_1_"  style="overflow:visible;fill:#20285C;"/>
	<clipPath id="SVGID_2_">
		<use xlink:href="#SVGID_1_"  style="overflow:visible;"/>
	</clipPath>
</g>
</svg>
